<?xml version="1.0" encoding="UTF-8"?>
<!DOCTYPE svg PUBLIC "-//W3C//DTD SVG 1.1//EN" "http://www.w3.org/Graphics/SVG/1.1/DTD/svg11.dtd">
<svg xmlns="http://www.w3.org/2000/svg" version="1.1" width="968px" height="641px" style="shape-rendering:geometricPrecision; text-rendering:geometricPrecision; image-rendering:optimizeQuality; fill-rule:evenodd; clip-rule:evenodd" xmlns:xlink="http://www.w3.org/1999/xlink">
<g><path style="opacity:0.999" fill="#1A4C64" d="M -0.5,0.5 C -0.5,0.166667 -0.5,-0.166667 -0.5,-0.5C 322.167,-0.5 644.833,-0.5 967.5,-0.5C 967.5,213.167 967.5,426.833 967.5,640.5C 965.833,640.5 964.167,640.5 962.5,640.5C 908.698,628.705 854.698,617.205 800.5,606C 693.44,584.588 586.44,562.921 479.5,541C 434.451,531.205 390.784,517.205 348.5,499C 321.903,487.288 298.736,470.788 279,449.5C 260.559,424.197 249.559,395.864 246,364.5C 242.559,333.878 239.559,303.211 237,272.5C 232.136,217.789 210.802,170.789 173,131.5C 142.458,100.606 109.292,73.1058 73.5,49C 49.2212,32.2174 24.5546,16.0508 -0.5,0.5 Z"/></g>
</svg>
